<svg  viewBox="0 0 1024 1024" xmlns="http://www.w3.org/2000/svg"><path stroke="null" id="svg_1" d="m790.378608,181.939446l159.170503,93.036313a137.479329,133.929433 0 0 1 66.753862,114.851925l0,485.151935a137.479329,133.929433 0 0 1 -137.479329,133.929433l-733.22309,0a137.479329,133.929433 0 0 1 -137.479329,-133.929433l0,-485.151935a137.479329,133.929433 0 0 1 66.753847,-114.881682l159.170517,-93.006555l47.14013,76.548107l-159.170517,93.036313a45.826443,44.643144 0 0 0 -22.241091,38.333589l0,485.122164a45.826443,44.643144 0 0 0 45.826443,44.643144l733.22309,0a45.826443,44.643144 0 0 0 45.826443,-44.643144l0,-485.151935a45.826443,44.643144 0 0 0 -22.241105,-38.303818l-159.170517,-93.036313l47.140144,-76.548107zm-278.16651,-170.060622l183.305772,107.143546l-78.057713,160.71532l-2.657934,0l50.164675,408.841916l-152.754801,126.875816l-152.754815,-126.875816l50.134129,-408.841916l-2.138563,0l-78.546523,-160.71532l183.305772,-107.143546zm22.027239,267.858866l-44.085038,0l-46.193055,376.639337l68.250854,56.667022l68.25084,-56.667022l-46.254147,-376.639337l0.030546,0zm-22.027239,-163.721282l-64.768044,37.857386l17.872313,36.577607l94.096968,0l17.719553,-36.488321l-64.92079,-37.916915l0,-0.029757z"/></svg>