<svg  viewBox="0 0 904 914" xmlns="http://www.w3.org/2000/svg" ><path id="svg_1" d="m15.260156,540.526718l142.848,0l0,367.616l-142.848,0l0,-367.616zm245.248,-136.704l142.848,0l0,504.32l-142.848,0l0,-504.32zm257.024,78.336l142.848,0l0,426.496l-142.848,0l0,-426.496zm227.84,-190.976l142.848,0l0,617.472l-142.848,0l0,-617.472zm71.68,-285.184c-35.328,0 -64,28.672 -64,64c0,3.584 1.536,6.656 2.048,9.728l-128,123.904c-9.728,-6.144 -20.992,-10.752 -33.792,-10.752c-24.576,0 -45.568,14.336 -56.32,34.816l-144.896,-28.672c-8.192,-26.112 -31.232,-46.08 -60.416,-46.08c-31.232,0 -55.808,23.04 -61.952,52.224l-145.408,87.04c-10.752,-8.192 -23.552,-13.824 -37.888,-13.824c-35.328,0 -64,28.672 -64,64s28.672,64 64,64c31.232,0 55.808,-23.04 61.952,-52.224l144.896,-87.04c10.752,8.192 23.552,13.824 37.888,13.824c17.408,0 32.768,-7.168 44.032,-17.92l167.424,33.28c11.776,13.824 28.672,22.528 48.128,22.528c31.744,0 56.832,-23.552 61.952,-53.76l144.896,-134.656c6.144,2.048 12.288,4.096 18.944,4.096c35.328,0 64,-28.672 64,-64c0.512,-35.84 -28.16,-64.512 -63.488,-64.512z"/></svg>