<svg viewBox="0 0 1024 1024"  xmlns="http://www.w3.org/2000/svg"><g><path stroke="null" id="svg_1" d="m439.892659,948.428572l507.985568,0l0,-362.917353l-235.848174,0c-15.096696,0 -27.939206,-5.303163 -38.535468,-15.893611c-10.596261,-10.598387 -15.890424,-23.451412 -15.890424,-38.543198l0,-235.911363l-217.711502,0l0,653.257586l0,0.007939zm145.141001,-816.568013l0,-36.28856a17.462004,17.465507 0 0 0 -5.373535,-12.781575a17.446129,17.449629 0 0 0 -12.771075,-5.366674l-399.133785,0c-4.929047,0 -9.191364,1.786245 -12.771075,5.366674a17.446129,17.449629 0 0 0 -5.365598,12.781575l0,36.28856a17.462004,17.465507 0 0 0 5.365598,12.781575c3.579711,3.57249 7.842027,5.366674 12.779012,5.366674l399.125848,0c4.936985,0 9.191364,-1.794184 12.779012,-5.374613c3.571774,-3.57249 5.365598,-7.835661 5.365598,-12.773637zm145.141001,381.065602l169.516371,0l-169.508434,-169.558315l0,169.558315l-0.007937,0zm290.266128,72.585058l0,381.065602c0,15.099724 -5.294162,27.944811 -15.890424,38.543198c-10.596261,10.598387 -23.438772,15.893611 -38.535468,15.893611l-544.274787,0c-15.088759,0 -27.939206,-5.295224 -38.52753,-15.893611c-10.596261,-10.598387 -15.898361,-23.443473 -15.898361,-38.543198l0,-90.733308l-308.410738,0c-15.096696,0 -27.939206,-5.295224 -38.535468,-15.893611c-10.596261,-10.598387 -15.890424,-23.443473 -15.890424,-38.543198l0,-762.131204c0,-15.099724 5.294162,-27.944811 15.890424,-38.543198c10.596261,-10.598387 23.438772,-15.893611 38.535468,-15.893611l616.83735,0c15.096696,0 27.939206,5.295224 38.535468,15.893611c10.596261,10.598387 15.898361,23.443473 15.898361,38.543198l0,186.031464c7.937274,4.937975 14.731581,10.241138 20.390858,15.90155l231.34774,231.394148c10.596261,10.598387 19.668566,24.967736 27.216914,43.108046c7.540411,18.156188 11.318553,34.796053 11.318553,49.94341l0,-0.1429l-0.007937,0z"/></g></svg>