<svg  viewBox="0 0 1024 1024" xmlns="http://www.w3.org/2000/svg"><path stroke="null" id="svg_1" d="m510.136869,9.786048c258.061184,97.519917 414.652951,409.240242 280.506865,661.80681l-327.360769,-331.45281l124.963513,-126.371056l-78.154022,-78.380395c-43.12319,42.563208 -111.658083,51.637914 -157.878444,32.872645l-248.814342,250.896642l140.908658,141.467491l93.924127,-94.267708l327.251043,330.902746c-160.145872,88.620231 -382.131468,60.692089 -545.964426,-110.813517l-79.331757,79.699491c23.775466,33.202419 43.690113,63.284487 68.447111,88.509693c-2.159268,2.614768 -8.964948,8.2404 -9.095575,8.394365c-4.166487,-0.681656 -9.095575,-2.306838 -13.479948,-2.306838c-42.20697,0 -76.299899,37.024954 -76.299899,79.588953c0,42.496886 34.42028,77.171574 76.626989,77.171574c42.229176,0 78.349962,-34.982619 78.349962,-77.522931c0,-4.966348 -1.11216,-9.493173 -1.963328,-14.173962l12.193271,-12.063199c188.350386,128.019399 394.78324,143.972247 616.898679,10.019548l91.720968,92.773331l125.552119,-124.811144l-92.310096,-94.003731c264.913105,-402.33973 -88.317607,-797.560237 -406.690698,-787.935996l0,0l0,0z"/></svg>