<svg viewBox="0 0 1024 1024"  xmlns="http://www.w3.org/2000/svg" version="1.1"><path stroke="null" id="svg_1" d="m125.700878,202.947126l164.178504,0l0,-73.304592c0,-70.169257 56.782335,-127.158144 127.068006,-127.531512c68.294633,-0.364991 123.952589,54.612256 124.316993,122.79261c0.005993,1.118907 -0.003596,2.237815 -0.02757,3.356722l-1.636223,74.685575l159.175138,0c68.519988,0 124.065266,55.454727 124.065266,123.857667l0,164.006698l76.57524,0c67.550241,0 122.311571,54.669697 122.311571,122.109299c0,67.437209 -54.76133,122.106906 -122.311571,122.106906l-76.576439,0l0,160.934788c0,68.404136 -55.545278,123.857667 -124.065266,123.857667l-154.759133,0l0,-77.776631c0,-73.241167 -59.473413,-132.615062 -132.838539,-132.615062c-73.363928,0 -132.83734,59.373895 -132.83734,132.615062l0,77.776631l-152.638636,0c-68.518789,0 -124.065266,-55.453531 -124.065266,-123.857667l0,-156.826543l86.282298,0c72.444526,0 131.17115,-58.629552 131.17115,-130.951659c0,-72.322107 -58.726624,-130.951659 -131.169951,-130.951659l-86.283497,0l0,-150.426632c0,-68.405333 55.546477,-123.857667 124.065266,-123.857667z"/></svg>