<svg viewBox="0 0 1024 1024" xmlns="http://www.w3.org/2000/svg"><g><path stroke="null" id="svg_1" d="m681.300639,290.895683c19.345742,57.526698 45.137375,102.269685 90.27475,147.012672c38.683416,-38.351132 64.475049,-89.485974 83.820791,-147.012672l-174.095542,0zm-425.541781,319.592766l167.641583,0l-83.820791,-223.714936l-83.820791,223.714936z"/><path stroke="null" id="svg_2" d="m895.380443,1.399438l-766.917125,0c-70.296938,0 -127.815523,57.467776 -127.815523,127.706168l0,766.23701c0,70.238393 57.518584,127.706168 127.815523,127.706168l766.917125,0c70.296938,0 127.815523,-57.467776 127.815523,-127.706168l0,-766.23701c0,-70.238393 -51.129408,-127.706168 -127.815523,-127.706168zm-313.157626,823.704785c-12.778354,12.770617 -25.564704,12.770617 -38.343057,12.770617c-6.397173,0 -19.175527,0 -25.564704,-6.385308c-6.397173,-6.385308 -12.78635,0 -12.78635,-6.385308s-6.389177,-12.770617 -12.778354,-25.541234c-6.397173,-12.770617 -6.397173,-19.155925 -12.78635,-31.926542l-25.556707,-70.238393l-223.685161,0l-25.564704,70.238393c-12.778354,25.541234 -19.175527,44.697159 -25.564704,57.467776c-6.397173,12.770617 -19.175527,12.770617 -38.343057,12.770617c-12.78635,0 -25.564704,-6.385308 -38.351054,-12.770617c-12.778354,-12.770617 -19.167531,-19.155925 -19.167531,-31.926542c0,-6.385308 0,-12.770617 6.389177,-25.541234c6.397173,-12.770617 6.397173,-19.155925 12.778354,-31.926542l140.601873,-357.577271c6.397173,-12.770617 6.397173,-25.541234 12.78635,-38.31185c6.389177,-12.770617 12.778354,-25.541234 19.167531,-31.926542c6.397173,-6.385308 12.78635,-19.155925 25.564704,-25.541234c12.78635,-6.385308 25.564704,-6.385308 38.351054,-6.385308c12.778354,0 25.556707,0 38.343057,6.385308c12.778354,6.385308 19.175527,12.770617 25.564704,25.541234c6.389177,6.385308 12.778354,19.155925 19.167531,31.926542c6.397173,12.770617 12.78635,25.541234 19.175527,44.697159l140.601873,351.191963c12.778354,25.541234 19.175527,44.697159 19.175527,57.467776c-6.397173,6.385308 -12.78635,19.155925 -19.175527,31.926542zm351.500684,-249.027028c-70.296938,-25.541234 -121.426346,-57.467776 -166.166577,-95.779626c-44.732234,44.697159 -102.250819,76.623701 -172.555753,95.779626l-19.167531,-31.926542c70.296938,-19.155925 127.815523,-44.697159 172.555753,-89.394318c-44.740231,-44.697159 -83.083288,-102.164935 -95.869638,-166.018019l-63.907761,0l0,-25.541234l172.56375,0c-12.794347,-19.155925 -25.5727,-44.697159 -38.351054,-63.853084l19.167531,-6.385308c12.78635,19.155925 31.961877,44.697159 44.740231,70.238393l159.769403,0l0,31.926542l-63.907761,0c-19.167531,63.853084 -51.121411,121.32086 -89.472465,159.63271c44.740231,38.31185 95.861642,70.238393 166.166577,89.394318l-25.564704,31.926542z"/></g></svg>