<svg viewBox="0 0 1024 1024"  xmlns="http://www.w3.org/2000/svg"><path stroke="null" id="svg_1" d="m916.418208,485.615455c43.686306,-29.459669 98.248492,7.314473 98.248492,66.082479l0,310.385867c0,58.868894 -54.699277,95.643037 -98.385583,66.183366l-81.5234,-54.782879l0,35.563471c0,59.020228 -41.447155,107.396637 -92.216493,107.396638l-640.991445,0c-50.632247,0 -92.216492,-48.27552 -92.216492,-107.447082l0,-440.88615c0,-59.020228 41.447154,-107.447082 92.216492,-107.447082l641.128536,0c50.632247,0 92.170796,48.27552 92.170796,107.447082l0,72.287168l81.5234,-54.782879l0.045697,0zm-538.538832,32.486349c-21.568972,-17.352956 -48.575883,4.338239 -48.712974,39.044151l0,262.665238c0,34.857246 27.144002,56.497997 48.712974,39.195485l163.595165,-131.357841c21.568972,-17.352956 21.568972,-60.836235 0,-78.189191l-163.595165,-131.357841zm-48.667277,-308.771639a91.393946,100.889279 0 1 1 -182.787893,0a91.393946,100.889279 0 0 1 182.787893,0m274.18184,100.889279a137.09092,151.333919 0 1 0 0.045697,-302.617392a137.09092,151.333919 0 0 0 -0.045697,302.617392z"/></svg>