<svg viewBox="0 0 896 896" width="896" height="896" xmlns="http://www.w3.org/2000/svg">
    <polygon points="575.4564819335938,277.4999694824219 233.5,605.7890625 537.5305786132812,605.7890625 320.5434875488281,886.5 662.5,558.2109375 358.4695739746094,558.2109375 "/>
    <path d="m747.4,354.7c-45.8,-120.8 -162.5,-206.7 -299.2,-206.7s-253.4,85.8 -299.2,206.6c-85.7,22.5 -149,100.6 -149,193.4c0,110.5 89.5,200 199.9,200l40.1,0c4.4,0 8,-3.6 8,-8l0,-60c0,-4.4 -3.6,-8 -8,-8l-40.1,0c-33.7,0 -65.4,-13.4 -89,-37.7c-23.5,-24.2 -36,-56.8 -34.9,-90.6c0.9,-26.4 9.9,-51.2 26.2,-72.1c16.7,-21.3 40.1,-36.8 66.1,-43.7l37.9,-9.9l13.9,-36.6c8.6,-22.8 20.6,-44.1 35.7,-63.4a245.6,245.6 0 0 1 52.4,-49.9c41.1,-28.9 89.5,-44.2 140,-44.2s98.9,15.3 140,44.2c19.9,14 37.5,30.8 52.4,49.9c15.1,19.3 27.1,40.7 35.7,63.4l13.8,36.5l37.8,10c54.2,14.6 92.1,63.9 92.1,120.1c0,33.1 -12.9,64.3 -36.3,87.7a123.07,123.07 0 0 1 -87.6,36.3l-40.1,0c-4.4,0 -8,3.6 -8,8l0,60c0,4.4 3.6,8 8,8l40.1,0c110.4,0 199.9,-89.5 199.9,-200c0,-92.7 -63.1,-170.7 -148.6,-193.3z"/>
</svg>
