<svg class="icon" width="200px" height="188.93px" viewBox="0 0 1084 1024" version="1.1" xmlns="http://www.w3.org/2000/svg"><path d="M316.71055654 144.74687891v40.86265605A68.10442646 68.10442646 0 0 0 300.36549394 223.74801318v6.12939903a68.10442646 68.10442646 0 0 0 136.20885382 0 68.10442646 68.10442646 0 0 0-12.59931974-39.50056758l-3.74574286-4.76730967v-40.86265605h238.36549306v40.86265605A68.10442646 68.10442646 0 0 0 640.88762802 223.74801318v6.12939903a68.10442646 68.10442646 0 0 0 136.20885294 0 68.10442646 68.10442646 0 0 0-16.34506172-44.26787725v-40.86265605H913.30533477a102.15664013 102.15664013 0 0 1 102.15664013 102.15664013v612.93984083a102.15664013 102.15664013 0 0 1-102.15664013 102.15664013H164.15664013a102.15664013 102.15664013 0 0 1-102.15664013-102.15664013v-612.93984083a102.15664013 102.15664013 0 0 1 102.15664013-102.15664013z" fill="#BAE7FF" /><path d="M657.23268974 144.74687891v40.86265605A68.10442646 68.10442646 0 0 0 640.88762802 223.74801318v6.12939903a68.10442646 68.10442646 0 0 0 136.20885294 0 68.10442646 68.10442646 0 0 0-12.59931885-39.50056758l-3.74574287-4.76730967v-40.86265605H913.30533477a102.15664013 102.15664013 0 0 1 102.15664013 102.15664013v136.20885294H62v-136.20885294a102.15664013 102.15664013 0 0 1 102.15664013-102.15664013h152.55391641v40.86265605A68.10442646 68.10442646 0 0 0 300.36549394 223.74801318v6.12939903a68.10442646 68.10442646 0 0 0 136.20885382 0 68.10442646 68.10442646 0 0 0-12.59931974-39.50056758l-3.74574286-4.76730967v-40.86265605zM708.9920545 62a34.05221367 34.05221367 0 0 1 34.05221366 34.05221367v136.20885293a34.05221367 34.05221367 0 0 1-68.10442733 1e-8V96.05221367a34.05221367 34.05221367 0 0 1 34.05221367-34.05221367zM368.46992041 62a34.05221367 34.05221367 0 0 1 34.05221367 34.05221367v136.20885293a34.05221367 34.05221367 0 0 1-68.10442734 1e-8V96.05221367a34.05221367 34.05221367 0 0 1 34.05221367-34.05221367z" fill="#40A9FF" /><path d="M418.86719668 487.65266739h263.22360908v51.41884219l-136.20885381 337.79795712h-67.7639039l139.61407412-331.32803643h-198.86492549v-57.88876289z" fill="#1890FF" /></svg>