<svg class="icon" width="200px" height="200.00px" viewBox="0 0 1024 1024" version="1.1" xmlns="http://www.w3.org/2000/svg"><path d="M849.5 804.5c22.5 0 41.78571416-22.5 38.57142832-48.21428584l-12.85714248-83.57142832c-9.64285752-35.35714248-38.57142832-64.28571416-73.92857168-64.28571417h-186.42857168l-16.07142832-96.42857167c86.78571416-35.35714248 144.64285752-115.71428584 144.64285752-215.35714248 0-128.57142832-106.07142832-234.64285752-234.64285752-234.64285752S274.14285752 168.07142832 274.14285752 296.64285752c0 96.42857168 57.85714248 180 144.64285664 215.35714248l-12.85714248 96.42857168H219.5c-35.35714248 0-70.71428584 28.92857168-73.92857168 61.07142832l-16.07142832 86.78571416c-6.42857168 22.5 12.85714248 48.21428584 35.35714248 48.21428584h684.64285752z" fill="#FFC53D" /><path d="M174.5 833.42857168h675c25.71428584 0 48.21428584 22.5 48.21428584 48.21428584s-22.5 48.21428584-48.21428584 48.21428496h-675c-25.71428584 0-48.21428584-22.5-48.21428584-48.21428496S148.78571416 833.42857168 174.5 833.42857168z" fill="#FAAD14" /><path d="M666.28571416 261.28571416m-32.14285664 0a32.14285752 32.14285752 0 1 0 64.28571416 0 32.14285752 32.14285752 0 1 0-64.28571416 0Z" fill="#FFF1B8" /><path d="M640.57142832 222.71428584c-9.64285752 0-16.07142832-3.21428584-22.5-12.85714336-9.64285752-19.28571416-22.5-35.35714248-32.14285664-45-12.85714248-9.64285752-28.92857168-19.28571416-54.64285752-28.9285708-12.85714248-3.21428584-19.28571416-19.28571416-16.07142832-32.14285752 3.21428584-12.85714248 19.28571416-19.28571416 32.14285664-16.07142832 32.14285752 9.64285752 54.64285752 22.5 70.71428584 38.57142832 16.07142832 12.85714248 32.14285752 35.35714248 45 61.07142832 6.42857168 12.85714248 0 25.71428584-9.64285665 32.14285752-6.42857168 0-9.64285752 3.21428584-12.85714335 3.21428584z" fill="#FFF1B8" /></svg>