<svg class="icon" width="200px" height="171.52px" viewBox="0 0 1194 1024" version="1.1" xmlns="http://www.w3.org/2000/svg"><path d="M136.99999971 62h300.00000058a150.00000029 150.00000029 0 0 1 149.99999942 150.00000029v675a74.99999971 74.99999971 0 0 1-74.99999971 74.99999971H136.99999971a74.99999971 74.99999971 0 0 1-74.99999971-74.99999971V136.99999971a74.99999971 74.99999971 0 0 1 74.99999971-74.99999971z" fill="#CF5A1A" /><path d="M62 174.5h974.99999971a74.99999971 74.99999971 0 0 1 75.00000058 74.99999971v637.50000058a74.99999971 74.99999971 0 0 1-75.00000058 74.99999971H136.99999971a74.99999971 74.99999971 0 0 1-74.99999971-74.99999971V174.5z" fill="#FF7A45" /><path d="M343.25 624.5A56.25 56.25 0 1 1 287 680.75 56.25 56.25 0 0 1 343.25 624.5z m506.25 18.74999971a37.50000029 37.50000029 0 0 1 0 75.00000058h-299.99999971a37.50000029 37.50000029 0 0 1 0-75.00000058zM343.25 399.5A56.25 56.25 0 1 1 287 455.75 56.25 56.25 0 0 1 343.25 399.5z m506.25 18.74999971a37.50000029 37.50000029 0 0 1 0 75.00000058h-299.99999971a37.50000029 37.50000029 0 0 1 0-75.00000058z" fill="#FFBB96" /></svg>