<svg class="icon" width="200px" height="200.00px" viewBox="0 0 1024 1024" version="1.1" xmlns="http://www.w3.org/2000/svg"><path d="M90.92857168 637.35714248c-3.21428584-6.42857168 0-16.07142832 6.4285708-19.28571416 6.42857168-3.21428584 16.07142832 0 19.28571504 6.42857168 6.42857168 16.07142832 19.28571416 25.71428584 35.35714248 25.71428584 22.5 0 38.57142832-16.07142832 38.57142832-38.57142832s-16.07142832-38.57142832-38.57142832-38.5714292c-6.42857168 0-12.85714248-6.42857168-12.85714248-12.85714248V479.85714248c0-6.42857168 6.42857168-12.85714248 12.85714248-12.85714248s12.85714248 6.42857168 12.85714248 12.85714248v64.28571504c32.14285752 6.42857168 54.64285752 32.14285752 54.64285752 67.5 0 38.57142832-28.92857168 67.5-67.5 67.5-25.71428584 0-51.42857168-16.07142832-61.07142832-41.78571504z" fill="#D46B08" /><path d="M152 685.57142832c-32.14285752 0-57.85714248-19.28571416-70.71428584-45-3.21428584-6.42857168-3.21428584-12.85714248 0-16.07142832 3.21428584-6.42857168 6.42857168-9.64285752 12.85714336-12.85714248 6.42857168-3.21428584 12.85714248-3.21428584 16.07142832 0 6.42857168 3.21428584 9.64285752 6.42857168 12.85714248 12.85714248 6.42857168 12.85714248 16.07142832 19.28571416 28.92857168 19.28571416 16.07142832 0 32.14285752-12.85714248 32.14285752-32.14285664s-12.85714248-32.14285752-32.14285752-32.14285752c-12.85714248 0-22.5-9.64285752-22.5-22.5V479.85714248c0-12.85714248 9.64285752-22.5 22.5-22.5s22.5 9.64285752 22.5 22.5v57.85714336c32.14285752 9.64285752 54.64285752 38.57142832 54.64285752 73.92857168 0 19.28571416-6.42857168 38.57142832-22.5 54.64285664-16.07142832 12.85714248-35.35714248 19.28571416-54.64285752 19.28571416z m-54.64285752-51.4285708c9.64285752 22.5 32.14285752 35.35714248 54.64285752 35.35714248 16.07142832 0 32.14285752-6.42857168 41.78571416-19.28571416 9.64285752-12.85714248 16.07142832-25.71428584 16.07142832-41.78571416 0-28.92857168-19.28571416-51.42857168-48.21428496-57.85714335h-6.42857168V479.85714248c0-3.21428584-3.21428584-6.42857168-6.42857168-6.42857081s-3.21428584 3.21428584-3.21428584 6.42857081v77.14285752c0 3.21428584 3.21428584 6.42857168 6.42857168 6.42857167 25.71428584 0 48.21428584 22.5 48.21428584 48.21428585s-22.5 48.21428584-48.21428584 48.21428496c-19.28571416 0-35.35714248-12.85714248-45-28.92857081 0-3.21428584 0-3.21428584-3.21428584-3.21428583h-6.42857168c-3.21428584 0-3.21428584 0-3.21428496 3.21428583 3.21428584 0 3.21428584 0 3.21428496 3.21428585z" fill="#D46B09" /><path d="M126.28571416 222.71428584h64.28571416c19.28571416 0 32.14285752 12.85714248 32.14285752 32.14285664v192.85714336c0 19.28571416-12.85714248 32.14285752-32.14285752 32.14285664H126.28571416c-19.28571416 0-32.14285752-12.85714248-32.14285664-32.14285664V254.85714248c0-19.28571416 12.85714248-32.14285752 32.14285664-32.14285664z" fill="#FFC53D" /><path d="M94.14285752 158.42857168h803.57142832c19.28571416 0 32.14285752 12.85714248 32.14285664 32.14285664v64.28571416c0 19.28571416-12.85714248 32.14285752-32.14285664 32.14285752H94.14285752c-19.28571416 0-32.14285752-12.85714248-32.14285752-32.14285752V190.57142832c0-19.28571416 12.85714248-32.14285752 32.14285752-32.14285664z" fill="#FFD666" /><path d="M447.71428584 62h128.57142832c19.28571416 0 32.14285752 12.85714248 32.14285752 32.14285752v739.28571416c0 19.28571416-12.85714248 32.14285752-32.14285752 32.14285665h-128.57142832c-19.28571416 0-32.14285752-12.85714248-32.14285752-32.14285665V94.14285752c0-19.28571416 12.85714248-32.14285752 32.14285752-32.14285752z" fill="#FFC53D" /><path d="M158.42857168 833.42857168h707.14285664c19.28571416 0 32.14285752 12.85714248 32.14285752 32.14285664v64.28571416c0 19.28571416-12.85714248 32.14285752-32.14285752 32.14285752H158.42857168c-19.28571416 0-32.14285752-12.85714248-32.14285752-32.14285752v-64.28571416c0-19.28571416 12.85714248-32.14285752 32.14285752-32.14285664z" fill="#FAAD14" /><path d="M287 737h450c19.28571416 0 32.14285752 12.85714248 32.14285752 32.14285752v64.28571416c0 19.28571416-12.85714248 32.14285752-32.14285752 32.14285664H287c-19.28571416 0-32.14285752-12.85714248-32.14285752-32.14285664v-64.28571416c0-19.28571416 12.85714248-32.14285752 32.14285752-32.14285752z" fill="#FAAD14" /></svg>