<svg class="icon" width="200px" height="200.00px" viewBox="0 0 1024 1024" version="1.1" xmlns="http://www.w3.org/2000/svg"><path d="M66.28571469 717.71428531a445.71428531 205.71428531 0 1 0 891.42857062 0 445.71428531 205.71428531 0 1 0-891.42857062 0Z" fill="#40A9FF" /><path d="M66.28571469 512a445.71428531 205.71428531 0 1 0 891.42857062 0 445.71428531 205.71428531 0 1 0-891.42857062 0Z" fill="#BAE7FF" /><path d="M66.28571469 306.28571469a445.71428531 205.71428531 0 1 0 891.42857062 0 445.71428531 205.71428531 0 1 0-891.42857062 0Z" fill="#40A9FF" /><path d="M752 752m-205.71428531 0a205.71428531 205.71428531 0 1 0 411.42857062 0 205.71428531 205.71428531 0 1 0-411.42857062 0Z" fill="#1890FF" /><path d="M752 752m-171.42857156 0a171.42857156 171.42857156 0 1 0 342.85714312 0 171.42857156 171.42857156 0 1 0-342.85714312 0Z" fill="#BAE7FF" /><path d="M752 752m-68.57142844 0a68.57142844 68.57142844 0 1 0 137.14285688 0 68.57142844 68.57142844 0 1 0-137.14285688 0Z" fill="#1890FF" /><path d="M748.57142844 889.14285688h3.42857156c6.85714313 0 13.71428531 6.85714313 13.71428531 13.71428624v72.00000001c0 6.85714313-6.85714313 13.71428531-13.71428531 13.71428531h-3.42857156c-6.85714313 0-13.71428531-6.85714313-13.71428532-13.71428531v-72c0-6.85714313 6.85714313-13.71428531 13.71428532-13.71428625zM748.57142844 512h3.42857156c6.85714313 0 13.71428531 6.85714313 13.71428531 13.71428531v72c0 6.85714313-6.85714313 13.71428531-13.71428531 13.71428625h-3.42857156c-6.85714313 0-13.71428531-6.85714313-13.71428532-13.71428625v-72c0-6.85714313 6.85714313-13.71428531 13.71428532-13.71428531zM889.14285688 755.42857156V752c0-6.85714313 6.85714313-13.71428531 13.71428624-13.71428531h72.00000001c6.85714313 0 13.71428531 6.85714313 13.71428531 13.71428531v3.42857156c0 6.85714313-6.85714313 13.71428531-13.71428531 13.71428532h-72c-6.85714313 0-13.71428531-6.85714313-13.71428625-13.71428532zM512 755.42857156V752c0-6.85714313 6.85714313-13.71428531 13.71428531-13.71428531h72c6.85714313 0 13.71428531 6.85714313 13.71428625 13.71428531v3.42857156c0 6.85714313-6.85714313 13.71428531-13.71428625 13.71428532h-72c-6.85714313 0-13.71428531-6.85714313-13.71428531-13.71428532z" fill="#1890FF" /></svg>