<svg viewBox="0 0 1024 1024" xmlns="http://www.w3.org/2000/svg"><path stroke="null" d="m790.379 181.94 159.17 93.036a137.48 133.93 0 0 1 66.754 114.852V874.98a137.48 133.93 0 0 1-137.48 133.93H145.602A137.48 133.93 0 0 1 8.12 874.98V389.828a137.48 133.93 0 0 1 66.754-114.882l159.17-93.007 47.14 76.549-159.17 93.036a45.826 44.643 0 0 0-22.24 38.333V874.98a45.826 44.643 0 0 0 45.826 44.643h733.223a45.826 44.643 0 0 0 45.826-44.643V389.828a45.826 44.643 0 0 0-22.241-38.304l-159.17-93.036 47.14-76.549zM512.212 11.878l183.306 107.143-78.058 160.716h-2.658l50.165 408.842-152.755 126.875L359.457 688.58l50.134-408.842h-2.138l-78.547-160.716L512.212 11.88zm22.027 267.859h-44.085l-46.193 376.639 68.251 56.667 68.25-56.667-46.253-376.64h.03zm-22.027-163.722-64.768 37.858 17.872 36.577h94.097l17.72-36.488-64.92-37.917v-.03z"/></svg>