<svg viewBox="0 0 1024 1024" xmlns="http://www.w3.org/2000/svg"><path id="svg_1" d="m896,224l-768,0c-35.2,0 -64,28.8 -64,64l0,448c0,35.2 28.8,64 64,64l768,0c35.2,0 64,-28.8 64,-64l0,-448c0,-35.2 -28.8,-64 -64,-64zm0,480c0,19.2 -12.8,32 -32,32l-704,0c-19.2,0 -32,-12.8 -32,-32l0,-384c0,-19.2 12.8,-32 32,-32l704,0c19.2,0 32,12.8 32,32l0,384z"/><path stroke="null" id="svg_2" d="m255.428452,352c-38.057071,0 -63.428452,12.8 -63.428452,32l0,256c0,16 25.371381,32 63.428452,32s63.428452,-12.8 63.428452,-32l0,-256c0,-16 -25.371381,-32 -63.428452,-32z"/></svg>