<svg viewBox="0 0 1024 1024"  xmlns="http://www.w3.org/2000/svg">


        <path stroke="null" id="svg_1" d="m716.307878,792l-405.53878,0c-168.974492,0 -304.154085,-120 -304.154085,-270s135.179593,-270 304.154085,-270l405.53878,0c168.974492,0 304.154085,120 304.154085,270c0,147 -135.179593,270 -304.154085,270zm-405.53878,-480c-131.800104,0 -236.564288,93 -236.564288,210s104.764185,210 236.564288,210l405.53878,0c131.800104,0 236.564288,-93 236.564288,-210s-104.764185,-210 -236.564288,-210l-405.53878,0z"/>
        <path id="svg_2" d="m288.691923,522m-150,0a150,150 0 1 0 300,0a150,150 0 1 0 -300,0z"/>

</svg>