<svg viewBox="0 0 1024 1024" xmlns="http://www.w3.org/2000/svg"><path stroke="null" d="M439.893 948.429h507.985V585.51H712.03c-15.097 0-27.94-5.303-38.535-15.893-10.597-10.599-15.89-23.452-15.89-38.544V295.163H439.892V948.429zm145.14-816.568V95.572a17.462 17.466 0 0 0-5.373-12.782 17.446 17.45 0 0 0-12.77-5.366H167.754c-4.929 0-9.191 1.786-12.77 5.366a17.446 17.45 0 0 0-5.366 12.782v36.289a17.462 17.466 0 0 0 5.365 12.781c3.58 3.573 7.842 5.367 12.78 5.367h399.125c4.937 0 9.191-1.794 12.78-5.375 3.57-3.572 5.365-7.835 5.365-12.773zm145.142 381.065H899.69L730.183 343.368v169.558h-.008zm290.266 72.585v381.066c0 15.1-5.294 27.945-15.89 38.543-10.597 10.598-23.44 15.894-38.536 15.894H421.74c-15.089 0-27.94-5.296-38.527-15.894-10.597-10.598-15.899-23.443-15.899-38.543v-90.733H58.904c-15.097 0-27.94-5.296-38.536-15.894-10.596-10.598-15.89-23.444-15.89-38.543V59.276c0-15.1 5.294-27.945 15.89-38.544C30.964 10.134 43.807 4.84 58.903 4.84h616.838c15.097 0 27.939 5.295 38.535 15.893 10.597 10.599 15.899 23.444 15.899 38.544v186.031c7.937 4.938 14.731 10.241 20.39 15.902l231.348 231.394c10.597 10.598 19.669 24.967 27.217 43.108 7.54 18.156 11.319 34.796 11.319 49.943v-.143h-.008z"/></svg>