<svg viewBox="0 0 1024 1024" xmlns="http://www.w3.org/2000/svg"><path stroke="null" d="M510.137 9.786c258.061 97.52 414.653 409.24 280.507 661.807L463.283 340.14l124.963-126.371-78.154-78.38c-43.123 42.563-111.658 51.638-157.878 32.872L103.4 419.158l140.908 141.467 93.924-94.267L665.483 797.26c-160.145 88.62-382.131 60.693-545.964-110.813l-79.332 79.7c23.776 33.202 43.69 63.284 68.447 88.51-2.159 2.614-8.965 8.24-9.095 8.393-4.167-.681-9.096-2.306-13.48-2.306-42.207 0-76.3 37.025-76.3 79.589 0 42.496 34.42 77.171 76.627 77.171 42.23 0 78.35-34.982 78.35-77.523 0-4.966-1.112-9.493-1.963-14.174l12.193-12.063c188.35 128.02 394.783 143.972 616.899 10.02l91.72 92.773 125.553-124.811-92.31-94.004C1181.74 395.382 828.51.162 510.137 9.786z"/></svg>