<svg viewBox="0 0 1024 1024" xmlns="http://www.w3.org/2000/svg"><g stroke="null"><path d="M681.3 290.896c19.346 57.526 45.138 102.27 90.275 147.012 38.684-38.35 64.475-89.486 83.821-147.012H681.301zM255.76 610.488H423.4l-83.82-223.714-83.821 223.714z"/><path d="M895.38 1.4H128.463C58.166 1.4.648 58.866.648 129.105v766.237c0 70.238 57.518 127.706 127.815 127.706H895.38c70.297 0 127.816-57.468 127.816-127.706V129.106c0-70.239-51.13-127.707-127.816-127.707zM582.223 825.103c-12.779 12.77-25.565 12.77-38.343 12.77-6.397 0-19.176 0-25.565-6.384-6.397-6.386-12.786 0-12.786-6.386s-6.39-12.77-12.779-25.541c-6.397-12.77-6.397-19.156-12.786-31.927l-25.557-70.238H230.722l-25.565 70.238c-12.778 25.542-19.175 44.698-25.564 57.468-6.397 12.77-19.176 12.77-38.343 12.77-12.787 0-25.565-6.384-38.351-12.77-12.779-12.77-19.168-19.156-19.168-31.926 0-6.386 0-12.77 6.39-25.542 6.396-12.77 6.396-19.155 12.778-31.926L243.5 378.133c6.398-12.771 6.398-25.542 12.787-38.312 6.389-12.77 12.778-25.541 19.167-31.927 6.398-6.385 12.787-19.156 25.565-25.541 12.786-6.385 25.565-6.385 38.351-6.385 12.778 0 25.557 0 38.343 6.385 12.779 6.385 19.176 12.77 25.565 25.541 6.39 6.386 12.778 19.156 19.167 31.927 6.398 12.77 12.787 25.541 19.176 44.697L582.223 735.71c12.778 25.541 19.175 44.697 19.175 57.468-6.397 6.385-12.786 19.156-19.175 31.926zm351.5-249.027c-70.296-25.541-121.426-57.468-166.166-95.78-44.732 44.698-102.25 76.624-172.556 95.78l-19.167-31.926c70.297-19.156 127.815-44.698 172.555-89.395-44.74-44.697-83.083-102.165-95.87-166.018h-63.907v-25.54h172.564c-12.795-19.157-25.573-44.698-38.351-63.854l19.167-6.385c12.787 19.156 31.962 44.697 44.74 70.238h159.77v31.927h-63.908c-19.167 63.853-51.121 121.32-89.472 159.632 44.74 38.312 95.861 70.239 166.166 89.395l-25.564 31.926z"/></g></svg>