<svg viewBox="0 0 1024 1024" xmlns="http://www.w3.org/2000/svg"><path stroke="null" d="M916.418 485.615c43.687-29.46 98.249 7.315 98.249 66.083v310.386c0 58.869-54.7 95.643-98.386 66.183l-81.523-54.783v35.564c0 59.02-41.447 107.396-92.217 107.396H101.55c-50.632 0-92.217-48.275-92.217-107.447V468.111c0-59.02 41.447-107.447 92.217-107.447h641.128c50.633 0 92.171 48.276 92.171 107.447v72.287l81.524-54.783h.045zM377.88 518.102c-21.569-17.353-48.576 4.338-48.713 39.044v262.665c0 34.857 27.144 56.498 48.713 39.196l163.596-131.358c21.569-17.353 21.569-60.836 0-78.19L377.879 518.103zM329.212 209.33a91.394 100.89 0 1 1-182.788 0 91.394 100.89 0 0 1 182.788 0m274.182 100.89a137.09 151.334 0 1 0 .046-302.618 137.09 151.334 0 0 0-.046 302.617z"/></svg>