<svg width="470" height="530" xmlns="http://www.w3.org/2000/svg">
    <path transform="rotate(-180 235 265)" d="m411,264.99951l-248,0l0,103.1c0,39.6 31.7,72.5 71.3,72.9c40,0.4 72.7,-32.1 72.7,-72l0,-16c0,-13.3 10.7,-24 24,-24l32,0c13.3,0 24,10.7 24,24l0,16c0,84 -68.5,152.3 -152.5,152c-84,-0.3 -151.5,-69.5 -151.5,-153.5l0,-102.5l-24,0c-26.5,0 -48,-21.5 -48,-48l0,-160c0,-26.5 21.5,-48 48,-48l352,0c26.5,0 48,21.5 48,48l0,160c0,26.5 -21.5,48 -48,48zm-136,-152c0,-22.1 -17.9,-40 -40,-40s-40,17.9 -40,40l0,48c0,22.1 17.9,40 40,40s40,-17.9 40,-40l0,-48z"/>
</svg>
