<svg viewBox="0 0 1024 1024" xmlns="http://www.w3.org/2000/svg"><path d="M450.6 64.9h125.6v125.6H450.6zM150.065 239.09l88.81-88.81 88.812 88.81-88.811 88.812zM60.9 449.2h125.6v125.6H60.9zm85.405 337.282 88.811-88.811 88.811 88.81-88.811 88.812zM445.2 838.9h125.6v125.6H445.2zm248.496-48.659 88.81-88.81 88.812 88.81-88.811 88.811zM834.9 454.6h125.6v125.6H834.9zM697.385 242.921l88.81-88.81 88.812 88.81-88.811 88.811zM513 261c-139.9 0-253.2 113.4-253.2 253.2S373.1 767.5 513 767.5s253.2-113.4 253.2-253.2S652.9 261 513 261z"/></svg>